<svg width="54" height="54" viewBox="0 0 54 54" fill="none" xmlns="http://www.w3.org/2000/svg">
<path d="M50.9625 26.6505V15.9188C50.9625 13.4375 48.9438 11.4188 46.4625 11.4188H44.9372L45.2753 10.2442C45.8259 8.33222 44.7239 6.33929 42.8118 5.78871L32.6 2.84909C32.1222 2.71161 31.6236 2.98735 31.4863 3.46502C31.3487 3.9427 31.6245 4.4413 32.1022 4.57889L38.5219 6.42692C37.7278 7.97403 37.6987 9.81936 38.502 11.4188H19.6875V4.33127C19.6875 3.83425 19.2845 3.43127 18.7875 3.43127C18.2905 3.43127 17.8875 3.83425 17.8875 4.33127V11.4188H14.85V4.33127C14.85 3.83425 14.447 3.43127 13.95 3.43127C13.453 3.43127 13.05 3.83425 13.05 4.33127V11.4188H9.1125V3.65627C9.1125 2.6638 9.92002 1.85627 10.9125 1.85627H26.1C27.0925 1.85627 27.9 2.6638 27.9 3.65627V8.60628C27.9 9.1033 28.303 9.50628 28.8 9.50628C29.297 9.50628 29.7 9.1033 29.7 8.60628V3.65627C29.7 1.67121 28.0851 0.0562744 26.1 0.0562744H10.9125C8.92744 0.0562744 7.3125 1.67121 7.3125 3.65627V11.4188H4.5C2.0187 11.4188 0 13.4375 0 15.9188V49.4438C0 51.9251 2.0187 53.9438 4.5 53.9438H46.4625C48.9438 53.9438 50.9625 51.9251 50.9625 49.4438V42.8625C50.9625 42.3655 50.5595 41.9625 50.0625 41.9625C49.5655 41.9625 49.1625 42.3655 49.1625 42.8625V49.4438C49.1625 50.9325 47.9512 52.1438 46.4625 52.1438H4.5C3.01129 52.1438 1.8 50.9325 1.8 49.4438V15.9188C1.8 14.4301 3.01129 13.2188 4.5 13.2188H46.4625C47.9512 13.2188 49.1625 14.4301 49.1625 15.9188V26.6063H41.7375C39.7524 26.6063 38.1375 28.2212 38.1375 30.2063V35.1563C38.1375 37.1413 39.7524 38.7563 41.7375 38.7563H50.4024C52.3788 38.7563 54 37.1467 54 35.1563V30.2063C54 28.4126 52.6813 26.9214 50.9625 26.6505ZM40.3009 6.93914L42.3138 7.51863C43.27 7.79391 43.8207 8.79021 43.5456 9.74624L43.0641 11.4188H40.6584C39.5219 10.1547 39.4166 8.31647 40.3009 6.93914ZM52.2 35.1563C52.2 36.1488 51.3925 36.9563 50.4 36.9563H41.7375C40.745 36.9563 39.9375 36.1488 39.9375 35.1563V30.2063C39.9375 29.2138 40.745 28.4063 41.7375 28.4063H50.4C51.3925 28.4063 52.2 29.2138 52.2 30.2063V35.1563ZM45.1125 32.6813C45.1125 33.1783 44.7095 33.5813 44.2125 33.5813H42.8625C42.3655 33.5813 41.9625 33.1783 41.9625 32.6813C41.9625 32.1843 42.3655 31.7813 42.8625 31.7813H44.2125C44.7095 31.7813 45.1125 32.1843 45.1125 32.6813Z" fill="black"/>
</svg>
