<svg width="54" height="54" viewBox="0 0 54 54" fill="none" xmlns="http://www.w3.org/2000/svg">
<g clip-path="url(#clip0)">
<path d="M53.9008 12.805C53.7149 12.1139 53.2615 11.5247 52.6411 11.1675C52.0202 10.8085 51.2821 10.7114 50.5896 10.8973C49.898 11.0835 49.3088 11.5365 48.9516 12.1569L48.5017 12.9399C48.0742 12.6943 47.528 12.8389 47.278 13.2642L44.9924 17.1601L44.2094 16.7102C44.002 16.5903 43.7551 16.5578 43.524 16.6202C43.2924 16.683 43.0956 16.835 42.9765 17.0433C42.7326 17.4734 42.8811 18.02 43.3095 18.2669L44.0925 18.7169L36.4438 31.9716L34.554 37.02L33.6542 38.7024C33.1274 39.619 33.1836 40.7583 33.7983 41.6181L31.7737 44.1015L31.2069 42.6801C30.9511 42.0465 30.3593 41.6124 29.6787 41.5593C28.9977 41.5057 28.3452 41.8422 27.9941 42.4279L27.6703 42.9767L27.3645 39.3773C27.2942 38.5258 26.6347 37.8412 25.7867 37.7384C24.9383 37.6361 24.1351 38.1444 23.864 38.9546L21.6504 45.5954C21.4957 46.0651 21.7488 46.5713 22.2172 46.7294C22.3051 46.7703 22.3995 46.7949 22.4962 46.801C22.8828 46.8024 23.2273 46.5559 23.3512 46.1894L25.5556 39.5487L25.8706 43.2017C25.9356 43.9811 26.4959 44.6292 27.2577 44.8058C28.0196 44.9825 28.8079 44.6468 29.209 43.9758L29.5421 43.4266L30.1001 44.8397C30.3369 45.435 30.8725 45.8599 31.5065 45.9544C32.1405 46.0488 32.7768 45.7988 33.1775 45.2984L35.2742 42.6441C35.5062 42.7047 35.7452 42.735 35.9851 42.7342C36.9495 42.7416 37.845 42.2337 38.3336 41.402L39.2334 39.8993L42.6619 35.7331L50.3914 22.3163L51.1744 22.7662C51.3831 22.8857 51.5351 23.083 51.5971 23.3154C51.6595 23.5461 51.627 23.7921 51.5075 23.9991L47.9081 30.2352C47.7723 30.4399 47.7262 30.6912 47.7807 30.9311C47.8351 31.1706 47.985 31.3776 48.1959 31.5037C48.4033 31.624 48.6502 31.6566 48.8813 31.5942C49.1129 31.5313 49.3097 31.3793 49.4288 31.171L53.0281 24.9349C53.3871 24.3141 53.4842 23.576 53.2979 22.8835C53.1116 22.1919 52.6586 21.6027 52.0382 21.2455L51.2553 20.7956L53.5049 16.8992C53.7505 16.4716 53.6059 15.9259 53.1811 15.6755L53.631 14.8925C53.9996 14.262 54.0972 13.5089 53.9008 12.805ZM50.5083 13.0568C50.6274 12.8485 50.8251 12.6961 51.0575 12.6341C51.2887 12.577 51.5329 12.6091 51.7412 12.7242C51.9499 12.8433 52.1019 13.041 52.1643 13.273C52.2215 13.5041 52.1894 13.7484 52.0743 13.9566L51.6243 14.7396L50.0584 13.8398L50.5083 13.0568ZM38.2435 38.1809L37.7936 37.9199L36.4618 37.1457L37.7395 33.7265L40.574 35.364L38.2435 38.1809ZM35.544 40.7811C35.1639 40.5162 35.047 40.0065 35.2742 39.6023L35.7241 38.8197L37.2896 39.7196L36.8397 40.4933C36.7136 40.7121 36.5018 40.8677 36.2553 40.9226C36.0088 40.9771 35.7509 40.9261 35.544 40.7811ZM41.5999 33.8886L38.4865 32.0889L45.6853 19.6167L48.7987 21.4164L41.5999 33.8886ZM49.6985 19.8597L46.5851 18.06L48.3848 14.9466L51.4982 16.7463L49.6985 19.8597Z" fill="black"/>
<path d="M14.1991 40.3311L11.014 43.5078L9.10623 41.6C8.75517 41.2512 8.18837 41.2512 7.83731 41.6C7.66683 41.7692 7.57104 41.999 7.57104 42.2389C7.57104 42.4788 7.66683 42.709 7.83731 42.8777L9.74509 44.7855C10.0825 45.1203 10.5386 45.3079 11.014 45.3075C11.4921 45.3101 11.9521 45.1225 12.2917 44.7855L15.468 41.6C15.7738 41.2428 15.7531 40.7107 15.421 40.3786C15.0884 40.046 14.5563 40.0253 14.1991 40.3311Z" fill="black"/>
<path d="M3.59937 42.7517C3.59937 46.9764 7.02388 50.4004 11.2481 50.4004C15.4722 50.4004 18.8968 46.9764 18.8968 42.7517C18.8968 42.2548 18.4939 41.8519 17.9969 41.8519C17.5 41.8519 17.0971 42.2548 17.0971 42.7517C17.0971 45.982 14.4784 48.6007 11.2481 48.6007C8.01775 48.6007 5.39906 45.982 5.39906 42.7517C5.39906 39.5214 8.01775 36.9027 11.2481 36.9027C12.5144 36.8992 13.7468 37.31 14.7574 38.0728C15.155 38.3711 15.7192 38.2903 16.0171 37.8926C16.3154 37.495 16.235 36.9313 15.8374 36.6329C13.5197 34.8948 10.4185 34.6153 7.8275 35.9106C5.23605 37.2063 3.59937 39.8549 3.59937 42.7517Z" fill="black"/>
<path d="M32.3945 7.20777C32.8914 7.20777 33.2944 6.8053 33.2944 6.30793C33.2944 5.81099 32.8914 5.40808 32.3945 5.40808H8.99848C8.50154 5.40808 8.09863 5.81099 8.09863 6.30793V9.90732C8.09863 10.4047 8.50154 10.8072 8.99848 10.8072H32.3945C32.8914 10.8072 33.2944 10.4047 33.2944 9.90732C33.2944 9.41038 32.8914 9.00747 32.3945 9.00747H9.89833V7.20777H32.3945Z" fill="black"/>
<path d="M11.6977 12.6068C11.2008 12.6068 10.7979 13.0097 10.7979 13.5067C10.7979 14.004 11.2008 14.4065 11.6977 14.4065H29.6946C30.1916 14.4065 30.5945 14.004 30.5945 13.5067C30.5945 13.0097 30.1916 12.6068 29.6946 12.6068H11.6977Z" fill="black"/>
<path d="M35.0942 18.9058H15.2976C14.8006 18.9058 14.3977 19.3087 14.3977 19.8056C14.3977 20.303 14.8006 20.7055 15.2976 20.7055H35.0942C35.5911 20.7055 35.994 20.303 35.994 19.8056C35.994 19.3087 35.5911 18.9058 35.0942 18.9058Z" fill="black"/>
<path d="M26.0957 25.2047C26.0957 24.7077 25.6928 24.3048 25.1959 24.3048H7.19892C6.70198 24.3048 6.29907 24.7077 6.29907 25.2047C6.29907 25.702 6.70198 26.1045 7.19892 26.1045H25.1959C25.6928 26.1045 26.0957 25.702 26.0957 25.2047Z" fill="black"/>
<path d="M35.0938 24.3048H28.7949C28.2979 24.3048 27.895 24.7077 27.895 25.2047C27.895 25.702 28.2979 26.1045 28.7949 26.1045H35.0938C35.5907 26.1045 35.9937 25.702 35.9937 25.2047C35.9937 24.7077 35.5907 24.3048 35.0938 24.3048Z" fill="black"/>
<path d="M16.1974 30.6038C16.6943 30.6038 17.0972 30.2013 17.0972 29.7039C17.0972 29.207 16.6943 28.8041 16.1974 28.8041H7.19892C6.70198 28.8041 6.29907 29.207 6.29907 29.7039C6.29907 30.2013 6.70198 30.6038 7.19892 30.6038H16.1974Z" fill="black"/>
<path d="M19.7968 30.6038H26.0957C26.5927 30.6038 26.9956 30.2013 26.9956 29.7039C26.9956 29.207 26.5927 28.8041 26.0957 28.8041H19.7968C19.2999 28.8041 18.897 29.207 18.897 29.7039C18.897 30.2013 19.2999 30.6038 19.7968 30.6038Z" fill="black"/>
<path d="M40.4931 41.402C39.9962 41.402 39.5933 41.8049 39.5933 42.3018V51.3003C39.5933 51.7977 39.1903 52.2001 38.6934 52.2001H2.69954C2.2026 52.2001 1.79969 51.7977 1.79969 51.3003V2.70857C1.79969 2.21164 2.2026 1.80873 2.69954 1.80873H38.6934C39.1903 1.80873 39.5933 2.21164 39.5933 2.70857V19.6079C39.5933 20.1049 39.9962 20.5078 40.4931 20.5078C40.99 20.5078 41.3929 20.1049 41.3929 19.6079V2.70857C41.3929 1.21776 40.1842 0.0090332 38.6934 0.0090332H2.69954C1.20873 0.0090332 0 1.21776 0 2.70857V51.3003C0 52.7915 1.20873 53.9998 2.69954 53.9998H38.6934C40.1842 53.9998 41.3929 52.7915 41.3929 51.3003V42.3018C41.3929 41.8049 40.99 41.402 40.4931 41.402Z" fill="black"/>
</g>
<defs>
<clipPath id="clip0">
<rect width="54" height="54" fill="white"/>
</clipPath>
</defs>
</svg>
