<svg width="54" height="44" viewBox="0 0 54 44" fill="none" xmlns="http://www.w3.org/2000/svg">
<path d="M53.0772 13.3107L40.8883 1.58551C40.3089 1.02895 39.5445 0.733319 38.7393 0.748612C37.9344 0.765381 37.1859 1.09328 36.6318 1.67146L32.6031 5.86986C32.066 6.43517 32.0868 7.33102 32.6463 7.86406L32.9745 8.17983L31.321 9.50062C31.2797 9.4984 31.233 9.4963 31.1795 9.4945C28.5973 9.41424 26.6801 9.84202 25.4814 10.7679L25.2912 10.9151L20.7483 8.67701L21.3508 8.09746C21.6242 7.83717 21.7792 7.48543 21.7875 7.1069C21.7958 6.72806 21.6558 6.36925 21.3942 6.09756L17.3687 1.90223C16.8145 1.32363 16.066 0.99583 15.261 0.978955C14.4519 0.959444 13.6912 1.25919 13.1114 1.81627L0.923382 13.5407C-0.273161 14.6899 -0.311868 16.6007 0.837635 17.8007L4.86422 21.9969C5.14013 22.2837 5.51011 22.4283 5.88147 22.4283C6.23321 22.4283 6.5861 22.2985 6.86096 22.0367L7.33852 21.5773C7.67623 23.7266 8.25673 25.8965 9.62487 27.4268L9.45528 27.6106C8.00951 29.1799 8.45923 31.2738 9.61654 32.4472C10.2544 33.0942 11.0299 33.4314 11.8112 33.4557C11.7068 34.4581 12.1661 35.4611 12.9027 36.1595C13.549 36.7724 14.4134 37.1653 15.2924 37.1652C15.511 37.1652 15.7305 37.14 15.9478 37.0887C16.0714 37.7999 16.4425 38.4762 16.947 38.9821C17.5531 39.5898 18.406 40.0134 19.3143 40.0134C19.4072 40.0134 19.5008 40.0087 19.5946 39.9997C19.6067 40.1742 19.6339 40.3517 19.678 40.5313C19.9864 41.7851 21.0023 42.8394 22.2059 43.1546C22.4069 43.2073 22.6661 43.2522 22.9652 43.2522C23.6643 43.2522 24.5818 43.007 25.486 42.0432L26.3721 41.0999L27.6681 42.0963C28.5162 42.7484 29.3573 43.0145 30.1125 43.0145C31.0609 43.0145 31.8738 42.5948 32.3944 41.993C32.8893 41.4211 33.1837 40.6093 33.0746 39.7413C34.0706 39.792 35.0101 39.408 35.6169 38.7681C36.0659 38.2946 36.3589 37.6498 36.3536 36.943C37.3857 37.0516 38.2867 36.611 38.844 35.9501C39.4859 35.1888 39.7728 34.0544 39.4082 32.9778C40.3607 32.7722 41.2337 32.1694 41.7908 31.263C42.4162 30.2456 42.6466 28.7289 41.6901 27.2307C43.1223 26.4411 44.9987 24.8651 47.0729 21.7428L47.1421 21.8091C47.4152 22.0691 47.7665 22.1983 48.1175 22.1983C48.4891 22.1983 48.86 22.0534 49.1366 21.7658L53.1631 17.5698C54.312 16.3701 54.2733 14.4593 53.0772 13.3107ZM10.7514 31.3279C10.1155 30.6831 9.80564 29.5828 10.6271 28.6912L12.0114 27.1915C12.5777 26.577 13.1971 26.3255 13.8036 26.4642C14.4396 26.6098 15.0063 27.1667 15.2137 27.8503C15.3136 28.1797 15.4033 28.8151 14.8806 29.369C14.88 29.3697 14.8795 29.3704 14.8789 29.371L12.9379 31.4318C12.1209 32.1614 11.2729 31.8566 10.7514 31.3279ZM16.2882 35.1059C15.4709 35.9629 14.465 35.4444 13.9995 35.0028C13.8786 34.8881 12.8449 33.8545 13.7657 32.8781C13.7658 32.878 13.7659 32.8779 13.766 32.8778L17.2811 29.1458C17.7178 28.6818 18.1669 28.548 18.5397 28.548C18.6782 28.548 18.8062 28.5665 18.919 28.5933C19.5461 28.7427 20.0855 29.2418 20.2612 29.8356C20.4248 30.3886 20.254 30.9506 19.7675 31.4609L19.0258 32.238C18.9881 32.2758 18.951 32.3155 18.914 32.3551L16.2882 35.1059ZM20.4317 37.8956C20.425 37.9014 20.4178 37.9064 20.4112 37.9124C20.3973 37.925 20.3849 37.9384 20.3714 37.9511C19.2783 38.9542 18.2685 38.05 18.0756 37.8565C17.6222 37.402 17.1772 36.4852 17.809 35.8233C17.8161 35.8159 17.822 35.808 17.8288 35.8005L19.976 33.5508C19.9882 33.5386 20.0006 33.5268 20.0122 33.5137C20.0197 33.5052 20.0274 33.4975 20.035 33.4891L20.1737 33.3436C20.7081 32.8148 21.2916 32.606 21.8731 32.7414C22.5135 32.8903 23.0646 33.4346 23.2446 34.096C23.3558 34.5051 23.3632 35.1119 22.766 35.6794L22.5039 35.9282C22.4973 35.934 22.4907 35.9392 22.4841 35.945C22.4672 35.9602 22.4515 35.9763 22.4361 35.9927L20.4317 37.8956ZM25.4598 39.7427L24.3236 40.9521C23.7691 41.5431 23.1918 41.7648 22.6097 41.6126C21.9753 41.4464 21.3933 40.8316 21.2257 40.1506C21.1523 39.8524 21.1358 39.436 21.4553 39.1199C21.47 39.1064 21.4847 39.0938 21.4994 39.0799L23.5666 37.1173C24.1892 36.5802 25.0634 36.8412 25.5759 37.3662C25.829 37.6252 26.5683 38.562 25.4598 39.7427ZM40.4326 30.4283C40.0287 31.0854 39.183 31.6116 38.3003 31.4205L35.2602 28.5907C34.9379 28.2907 34.4337 28.3089 34.1337 28.6311C33.8339 28.9533 33.8519 29.4576 34.1741 29.7576L37.3602 32.7233C37.3633 32.7261 37.3665 32.7284 37.3696 32.7312C37.371 32.7324 37.3719 32.7339 37.3733 32.7351C38.1593 33.4351 38.0951 34.3654 37.6252 34.9226C37.092 35.5551 36.2577 35.5232 35.3907 34.8401L32.2296 31.8975C31.9073 31.5975 31.403 31.6157 31.1031 31.9379C30.8032 32.2601 30.8212 32.7645 31.1434 33.0644L34.3066 36.0089C34.8558 36.606 34.911 37.1959 34.46 37.6714C33.9238 38.2367 32.8548 38.4191 31.9298 37.6431C31.9182 37.6334 31.906 37.6249 31.894 37.616L30.4418 36.2664C30.1193 35.9667 29.615 35.9852 29.3154 36.3077C29.0157 36.6301 29.0342 37.1345 29.3566 37.4341L30.9283 38.8948C31.719 39.714 31.5698 40.5097 31.1886 40.9503C30.712 41.501 29.7391 41.6782 28.6394 40.833L27.3291 39.8255C27.9854 38.4771 27.5694 37.1263 26.7163 36.2527C26.2177 35.7424 25.5336 35.3701 24.8061 35.2568C24.9325 34.7508 24.9288 34.2148 24.7826 33.6779C24.448 32.4482 23.4476 31.4712 22.2341 31.1891C22.0836 31.1541 21.9326 31.1308 21.7818 31.1186C21.9526 30.5525 21.9603 29.9601 21.7896 29.3836C21.4521 28.2429 20.4701 27.3243 19.288 27.0429C18.4063 26.8334 17.523 27.0016 16.7702 27.503C16.7599 27.4646 16.7507 27.4263 16.7391 27.3879C16.3653 26.1562 15.3526 25.1839 14.1592 24.9109C12.9804 24.6413 11.8015 25.0676 10.8397 26.1113L10.7117 26.2499C9.58943 24.915 9.09383 22.8479 8.75686 20.2134L12.1183 16.9798C12.4355 16.6747 12.4453 16.1701 12.1401 15.8529C11.8351 15.5356 11.3305 15.5258 11.0132 15.8311L7.40591 19.3011C7.37796 19.3245 7.35191 19.3497 7.32744 19.3766L5.88769 20.7616L1.98819 16.698C1.4464 16.1324 1.46412 15.232 2.02796 14.6904L14.2159 2.96556C14.4881 2.70421 14.8484 2.56436 15.2278 2.57259C15.6066 2.5805 15.9582 2.73406 16.2181 3.00533L20.1188 7.0703L13.5358 13.4034C13.2185 13.7086 13.2087 14.2132 13.5139 14.5303C13.819 14.8476 14.3236 14.8573 14.6409 14.5521L19.5266 9.85194L23.8875 12.0003L20.8067 14.3829C17.1128 17.241 18.2258 19.8134 18.655 20.5336C19.3871 21.7626 20.7476 22.4721 22.1355 22.4721C22.6765 22.4721 23.2218 22.3642 23.7355 22.1373C23.7661 22.1238 23.7959 22.1084 23.8246 22.0911L27.0598 20.1428L31.4601 19.1379L39.8718 27.4966C41.1792 28.8386 40.6998 29.9936 40.4326 30.4283ZM52.0123 16.4665L48.1122 20.5309L47.5143 19.9581C47.4918 19.9336 47.4677 19.9105 47.4418 19.8887L41.9486 14.6264C41.6304 14.3216 41.1262 14.3329 40.8216 14.6504C40.5171 14.9683 40.528 15.4729 40.8457 15.7774L45.9016 20.6208C43.6795 24.0357 41.776 25.4265 40.6176 25.9907L32.2723 17.6979C32.2701 17.6956 32.2677 17.694 32.2655 17.6917C32.2535 17.68 32.241 17.6691 32.2282 17.6582C32.2205 17.6516 32.2129 17.6448 32.205 17.6385C32.1934 17.6293 32.1813 17.6209 32.1692 17.6123C32.1596 17.6056 32.1501 17.5985 32.1403 17.5922C32.1294 17.5851 32.1179 17.5789 32.1066 17.5724C32.0954 17.5659 32.0843 17.5592 32.0728 17.5534C32.061 17.5474 32.0489 17.5422 32.0368 17.5368C32.0256 17.5317 32.0146 17.5264 32.0032 17.5219C31.9885 17.5161 31.9734 17.5113 31.9582 17.5063C31.9493 17.5035 31.9406 17.5001 31.9316 17.4975C31.9132 17.4921 31.8944 17.488 31.8755 17.484C31.8696 17.4827 31.8638 17.4811 31.858 17.48C31.8382 17.4762 31.8179 17.4736 31.7978 17.4714C31.7925 17.4709 31.7873 17.4699 31.7821 17.4694C31.7637 17.4677 31.7451 17.4673 31.7265 17.467C31.7189 17.4669 31.7113 17.4664 31.7037 17.4664C31.6884 17.4665 31.673 17.4676 31.6576 17.4687C31.6462 17.4694 31.6349 17.4699 31.6235 17.4712C31.6115 17.4726 31.5995 17.4746 31.5875 17.4765C31.5725 17.4788 31.5576 17.4811 31.5429 17.4844C31.5396 17.4851 31.5363 17.4853 31.5331 17.4861L26.5806 18.6172C26.4981 18.6361 26.4192 18.6679 26.3468 18.7114L23.0488 20.6974C21.9838 21.1402 20.6088 20.6987 20.0244 19.7177C19.3315 18.5545 19.9885 17.0313 21.782 15.6436L25.8758 12.4778C25.883 12.4722 25.8904 12.467 25.8973 12.4611L26.4563 12.0288C27.329 11.3545 28.9897 11.0203 31.1295 11.0875C31.1993 11.0897 31.2549 11.093 31.3006 11.0955C31.7661 11.1233 31.9524 11.0374 32.3107 10.75L34.1334 9.29422L38.2237 13.2294C38.5409 13.5346 39.0455 13.5247 39.3507 13.2076C39.6559 12.8904 39.6461 12.3858 39.329 12.0806L33.8816 6.83975L37.7827 2.77435C38.0423 2.5034 38.3938 2.34994 38.7727 2.34203C38.783 2.34182 38.7931 2.34172 38.8034 2.34172C39.1724 2.34172 39.5197 2.48062 39.784 2.73448L51.9728 14.4598C52.536 15.001 52.5537 15.9014 52.0123 16.4665Z" fill="black"/>
</svg>
