<svg width="42" height="54" viewBox="0 0 42 54" fill="none" xmlns="http://www.w3.org/2000/svg">
<path d="M35.1775 25.981C37.8718 23.0173 38.877 18.888 37.8466 15.0175C36.7149 10.7854 33.3183 7.53738 29.0399 6.59609C27.6326 2.51569 24.93 0 21.8945 0C18.922 0 16.2573 2.42267 14.8368 6.35757C10.3309 6.64283 6.38764 9.48742 4.69552 13.6736C3.00384 17.8603 3.86313 22.6457 6.90569 25.9818L5.18094 32.4417L6.7042 36.3405L3.13655 39.0969L4.89745 43.0357L1.61065 45.7344L0.934326 48.288L5.94676 53.9953L13.1403 51.562L19.2117 29.2153C19.8448 29.0085 20.459 28.7475 21.0475 28.4354C21.6617 28.7643 22.3041 29.0385 22.9672 29.2541L24.6932 35.7175L27.9637 38.3249L26.2637 42.4904L29.7572 45.0303L28.2626 49.0084L28.939 51.562L36.1355 54.0001L41.1493 48.2907L35.1775 25.981ZM21.8945 1.80587C23.8996 1.80587 25.8219 3.54208 27.0074 6.33068C25.8153 6.28042 24.6227 6.4118 23.4698 6.72042C22.6259 6.9466 21.8107 7.268 21.0401 7.67935C19.7121 6.97481 18.2603 6.53393 16.7648 6.38094C17.9419 3.56765 19.8796 1.80587 21.8945 1.80587ZM14.0295 15.8454C14.302 17.5578 14.8482 19.2156 15.6476 20.7538C15.3857 20.7644 15.1229 20.7371 14.8685 20.6727C13.851 20.4024 13.0838 19.5647 12.9035 18.5278C12.7232 17.4904 13.1632 16.4433 14.0295 15.8454ZM17.3463 20.1075C16.5483 18.6345 16.0175 17.0314 15.7776 15.3732C15.883 15.3772 15.9879 15.3878 16.092 15.405L16.2789 15.4447C16.9738 15.629 17.5659 16.0826 17.9252 16.7052C18.2845 17.3277 18.3806 18.0675 18.1924 18.761C18.0522 19.2848 17.7577 19.7543 17.3463 20.1075ZM18.232 27.6263L17.7365 27.7626L11.6505 50.1618L6.50933 51.8997L2.92625 47.8194L3.20709 46.7612L7.10761 43.5555L5.36523 39.6568L8.87689 36.9418L7.07807 32.3368L8.9148 25.4545L8.54622 25.0873C5.87181 22.412 4.94903 18.4502 6.16632 14.8689C7.38361 11.2871 10.5293 8.70794 14.2799 8.21679C13.9361 9.66642 13.7641 11.1513 13.7681 12.6411C13.7681 13.0445 13.787 13.4717 13.8139 13.9161C12.0407 14.6634 10.9385 16.4547 11.0703 18.3744C11.2021 20.294 12.5393 21.9178 14.3981 22.4155C14.7856 22.5204 15.1855 22.5734 15.5872 22.5734C17.8467 22.5632 19.7505 20.8843 20.0436 18.6442C20.3364 16.404 18.9282 14.2918 16.7476 13.701L16.651 13.6767C16.5668 13.6542 16.4817 13.6366 16.3953 13.6234C16.1325 13.5766 15.8663 13.5528 15.5991 13.5528C15.5828 13.238 15.5739 12.9338 15.5739 12.6411C15.5744 11.1266 15.775 9.6188 16.1705 8.15727C21.0189 8.43944 24.9507 12.1892 25.4621 17.0191C25.9736 21.8485 22.9138 26.3385 18.232 27.6299V27.6263ZM35.5681 51.8997L30.4314 50.1627L30.1505 49.1041L31.926 44.3774L28.4659 41.8617L30.1426 37.7553L26.2835 34.6726L24.4477 27.793L23.945 27.6576C23.5632 27.551 23.1876 27.4227 22.8208 27.2732C24.397 26.0339 25.6319 24.414 26.4092 22.5663C26.4413 22.5663 26.4731 22.5751 26.5057 22.5751C26.9021 22.5751 27.2971 22.5218 27.6794 22.4164C29.8842 21.8265 31.2999 19.6816 30.9763 17.422C30.6522 15.1629 28.6907 13.5026 26.4092 13.5559C25.6328 11.7073 24.3983 10.087 22.8217 8.84858C23.1841 8.7 23.5557 8.57347 23.934 8.4703C28.2772 7.30239 32.8633 9.1982 35.1136 13.0921C37.3639 16.9864 36.7166 21.9067 33.5356 25.0864L33.1675 25.4545L39.1539 47.8211L35.5681 51.8997ZM26.9902 15.3988C28.2309 15.6329 29.1449 16.6928 29.1947 17.9538C29.2445 19.2151 28.4161 20.3434 27.1979 20.6745C27.134 20.6934 27.0634 20.6925 26.9969 20.7062C27.4109 18.9607 27.4086 17.143 26.9902 15.3988Z" fill="black"/>
</svg>
