<svg width="46" height="54" viewBox="0 0 46 54" fill="none" xmlns="http://www.w3.org/2000/svg">
<path d="M37.3758 37.35H24.969C24.5321 37.35 24.178 37.7041 24.178 38.141C24.178 38.5778 24.5321 38.932 24.969 38.932H37.3758C37.8127 38.932 38.1668 38.5778 38.1668 38.141C38.1668 37.7041 37.8127 37.35 37.3758 37.35Z" fill="black"/>
<path d="M12.9325 43.1206H23.2885C23.7253 43.1206 24.0795 42.7664 24.0795 42.3296C24.0795 41.8927 23.7253 41.5386 23.2885 41.5386H12.9325C12.4956 41.5386 12.1415 41.8927 12.1415 42.3296C12.1415 42.7664 12.4956 43.1206 12.9325 43.1206Z" fill="black"/>
<path d="M12.9325 47.3091H37.3754C37.8122 47.3091 38.1664 46.9549 38.1664 46.5181C38.1664 46.0812 37.8122 45.7271 37.3754 45.7271H12.9325C12.4956 45.7271 12.1415 46.0812 12.1415 46.5181C12.1415 46.9549 12.4956 47.3091 12.9325 47.3091Z" fill="black"/>
<path d="M12.9325 38.932H21.1629C21.5997 38.932 21.9539 38.5778 21.9539 38.141C21.9539 37.7041 21.5997 37.35 21.1629 37.35H12.9325C12.4956 37.35 12.1415 37.7041 12.1415 38.141C12.1415 38.5778 12.4956 38.932 12.9325 38.932Z" fill="black"/>
<path d="M37.3754 41.5386H29.1479C28.7111 41.5386 28.3569 41.8927 28.3569 42.3296C28.3569 42.7664 28.7111 43.1206 29.1479 43.1206H37.3754C37.8122 43.1206 38.1664 42.7664 38.1664 42.3296C38.1664 41.8927 37.8122 41.5386 37.3754 41.5386Z" fill="black"/>
<path d="M29.1246 20.2204C28.9132 20.2145 28.5206 20.2034 28.217 20.5121C28.0839 20.6476 27.9288 20.8875 27.9451 21.2623C28.0778 24.3525 30.6048 26.7731 33.6981 26.7731C36.7288 26.7731 39.2527 24.4055 39.4443 21.3832C39.471 20.9635 39.3066 20.698 39.1642 20.5491C38.8368 20.2069 38.4075 20.2152 38.1243 20.2207C38.0888 20.2214 38.0522 20.2222 38.0151 20.2222H37.96L34.278 16.1437C34.2006 15.9989 34.0785 15.8765 33.9185 15.8012C32.176 14.9806 30.4208 14.3981 28.6894 14.064C28.693 14.0001 28.6952 13.9357 28.6952 13.8709C28.6952 11.9758 27.1361 10.434 25.2195 10.434C23.3029 10.434 21.7438 11.9758 21.7438 13.8709C21.7438 13.9278 21.7454 13.9844 21.7481 14.0406C19.9954 14.371 18.2364 14.9629 16.5079 15.8058C16.3522 15.8817 16.2334 16.0023 16.1576 16.1443L12.4788 20.2222H12.4209C12.3842 20.2222 12.348 20.2215 12.3127 20.2207C12.0288 20.2152 11.5999 20.2069 11.272 20.5495C11.1294 20.6984 10.9651 20.964 10.9918 21.384C11.1868 24.4059 13.712 26.7731 16.7409 26.7731C19.8342 26.7731 22.3612 24.3525 22.4939 21.2623C22.494 21.26 22.4941 21.2576 22.4941 21.2552C22.5067 20.8811 22.3505 20.6426 22.2172 20.5086C21.9139 20.2035 21.5241 20.2146 21.3144 20.2204C21.2882 20.2211 21.2607 20.2219 21.2329 20.222L18.1416 16.7978C19.4889 16.2206 20.8477 15.8081 22.1982 15.5668C22.6708 16.3868 23.4745 16.9964 24.4285 17.217V29.4036H23.061C21.5896 29.4036 20.3925 30.6007 20.3925 32.0722V33.1587H12.9323C12.4954 33.1587 12.1413 33.5129 12.1413 33.9497C12.1413 34.3866 12.4954 34.7407 12.9323 34.7407H37.3754C37.8123 34.7407 38.1664 34.3866 38.1664 33.9497C38.1664 33.5129 37.8123 33.1587 37.3754 33.1587H30.235V32.072C30.235 30.6005 29.0365 29.4035 27.5635 29.4035H26.0107V17.2169C26.9567 16.9982 27.7548 16.397 28.2289 15.5873C29.5679 15.8329 30.9267 16.2417 32.286 16.8078L29.206 20.222C29.1782 20.2219 29.1508 20.2211 29.1246 20.2204ZM16.7413 25.1911C14.7218 25.1911 13.0108 23.7403 12.6376 21.8042H20.8432C20.4741 23.7459 18.7767 25.1911 16.7413 25.1911ZM19.1022 20.2222H14.6099L16.8553 17.733L19.1022 20.2222ZM27.5636 30.9855C28.1643 30.9855 28.653 31.473 28.653 32.072V33.1586H21.9749V32.072C21.9749 31.473 22.4622 30.9855 23.0613 30.9855H27.5636ZM25.2197 15.7258C24.1756 15.7258 23.326 14.8936 23.326 13.8709C23.326 12.8481 24.1755 12.016 25.2197 12.016C26.264 12.016 27.1134 12.8481 27.1134 13.8709C27.1134 14.8936 26.264 15.7258 25.2197 15.7258ZM33.582 17.733L35.8289 20.2222H31.3366L33.582 17.733ZM37.7995 21.8042C37.4285 23.7405 35.7186 25.1911 33.6982 25.1911C31.6628 25.1911 29.9654 23.7459 29.5962 21.8042H37.7995Z" fill="black"/>
<path d="M44.6223 25.4217C45.0592 25.4217 45.4133 25.0675 45.4133 24.6306V5.59237C45.4133 4.6518 44.6482 3.88652 43.7075 3.88652H40.7789V1.72652C40.7789 0.774563 40.0045 0 39.0524 0H2.31344C1.36148 0 0.586914 0.774563 0.586914 1.72652V22.9859C0.586914 23.4227 0.941078 23.7769 1.37793 23.7769C1.81478 23.7769 2.16895 23.4227 2.16895 22.9859V1.72652C2.16895 1.64953 2.23645 1.58203 2.31344 1.58203H39.0525C39.1294 1.58203 39.197 1.64953 39.197 1.72652V3.88652H6.92664C5.98607 3.88652 5.22079 4.6517 5.22079 5.59237V48.5283H2.31344C2.23655 48.5283 2.16895 48.4608 2.16895 48.3838V18.6372C2.16895 18.2003 1.81478 17.8462 1.37793 17.8462C0.941078 17.8462 0.586914 18.2003 0.586914 18.6372V48.3838C0.586914 49.3358 1.36137 50.1103 2.31344 50.1103H5.22068V52.2941C5.22068 53.2347 5.98586 54 6.92653 54H43.7075C44.6481 54 45.4133 53.2348 45.4133 52.2941V20.9447C45.4133 20.5079 45.0592 20.1537 44.6223 20.1537C44.1855 20.1537 43.8313 20.5079 43.8313 20.9447V52.2941C43.8313 52.3601 43.7735 52.418 43.7075 52.418H6.92664C6.86072 52.418 6.80282 52.3602 6.80282 52.2941V49.3295C6.80282 49.3262 6.80335 49.3228 6.80335 49.3193C6.80335 49.3158 6.80293 49.3125 6.80282 49.3091V5.59237C6.80282 5.52646 6.86062 5.46855 6.92664 5.46855H43.7076C43.7735 5.46855 43.8314 5.52635 43.8314 5.59237V24.6306C43.8313 25.0675 44.1855 25.4217 44.6223 25.4217Z" fill="black"/>
</svg>
