<svg width="54" height="54" viewBox="0 0 54 54" fill="none" xmlns="http://www.w3.org/2000/svg">
<path d="M23.625 14.3438H27C27.9307 14.3438 28.6875 15.1006 28.6875 16.0312H30.375C30.375 14.1699 28.8613 12.6562 27 12.6562H26.1562V10.9688H24.4688V12.6562H23.625C21.7637 12.6562 20.25 14.1699 20.25 16.0312C20.25 17.8926 21.7637 19.4062 23.625 19.4062H27C27.9307 19.4062 28.6875 20.1631 28.6875 21.0938C28.6875 22.0244 27.9307 22.7812 27 22.7812H23.625C22.6943 22.7812 21.9375 22.0244 21.9375 21.0938H20.25C20.25 22.9551 21.7637 24.4688 23.625 24.4688H24.4688V26.1562H26.1562V24.4688H27C28.8613 24.4688 30.375 22.9551 30.375 21.0938C30.375 19.2324 28.8613 17.7188 27 17.7188H23.625C22.6943 17.7188 21.9375 16.9619 21.9375 16.0312C21.9375 15.1006 22.6943 14.3438 23.625 14.3438Z" fill="white"/>
<path d="M37.9688 16.0312H39.6562V21.0938H37.9688V16.0312Z" fill="white"/>
<path d="M41.3438 16.0312H43.0312V21.0938H41.3438V16.0312Z" fill="white"/>
<path d="M7.59375 16.0312H9.28125V21.0938H7.59375V16.0312Z" fill="white"/>
<path d="M10.9688 16.0312H12.6562V21.0938H10.9688V16.0312Z" fill="white"/>
<path d="M43.0312 8.4375V7.59375H6.75V8.4375C6.75 9.36816 5.99316 10.125 5.0625 10.125H4.21875V27H5.0625C5.99316 27 6.75 27.7568 6.75 28.6875V29.5312H43.875V28.6875C43.875 27.7568 44.6318 27 45.5625 27H46.4062V10.9688H45.5625C44.1669 10.9688 43.0312 9.83306 43.0312 8.4375ZM8.33034 27.8438C8.02491 26.6591 7.09003 25.7251 5.90625 25.4188V11.7062C7.09003 11.3999 8.02491 10.4659 8.33034 9.28125H19.494C16.4059 11.2236 14.3438 14.6526 14.3438 18.5625C14.3438 22.4724 16.4059 25.9014 19.494 27.8438H8.33034ZM16.0312 18.5625C16.0312 13.4452 20.1952 9.28125 25.3125 9.28125C30.4298 9.28125 34.5938 13.4452 34.5938 18.5625C34.5938 23.6798 30.4298 27.8438 25.3125 27.8438C20.1952 27.8438 16.0312 23.6798 16.0312 18.5625ZM44.7188 25.4188C43.535 25.7251 42.6001 26.6591 42.2947 27.8438H31.131C34.2191 25.9014 36.2812 22.4724 36.2812 18.5625C36.2812 14.6526 34.2191 11.2236 31.131 9.28125H41.4281C41.7639 10.9316 43.0675 12.2352 44.7179 12.571V25.4188H44.7188Z" fill="white"/>
<path d="M50.625 21.0938H49.7812V6.75C49.7812 5.35444 48.6456 4.21875 47.25 4.21875H3.375C1.97944 4.21875 0.84375 5.35444 0.84375 6.75V30.375C0.84375 31.7706 1.97944 32.9062 3.375 32.9062H4.21875V47.25C4.21875 48.6456 5.35444 49.7812 6.75 49.7812H50.625C52.0206 49.7812 53.1562 48.6456 53.1562 47.25V23.625C53.1562 22.2294 52.0206 21.0938 50.625 21.0938ZM3.375 31.2188C2.90925 31.2188 2.53125 30.8399 2.53125 30.375V6.75C2.53125 6.28509 2.90925 5.90625 3.375 5.90625H47.25C47.7158 5.90625 48.0938 6.28509 48.0938 6.75V29.5312V30.375C48.0938 30.8399 47.7158 31.2188 47.25 31.2188H3.375ZM12.6562 37.9688V32.9062H14.3438V37.9688H16.0312V32.9062H18.0292C17.8276 33.7416 17.7188 34.5887 17.7188 35.4375C17.7188 39.3474 19.7809 42.7764 22.869 44.7188H11.7053C11.3999 43.5341 10.465 42.6001 9.28125 42.2938V32.9062H10.9688V37.9688H12.6562ZM19.4062 35.4375C19.4062 34.5887 19.5337 33.7399 19.7724 32.9062H23.625C23.625 34.7676 25.1387 36.2812 27 36.2812H30.375C31.3057 36.2812 32.0625 37.0381 32.0625 37.9688C32.0625 38.8994 31.3057 39.6562 30.375 39.6562H27C26.0693 39.6562 25.3125 38.8994 25.3125 37.9688H23.625C23.625 39.8301 25.1387 41.3438 27 41.3438H27.8438V43.0312H29.5312V41.3438H30.375C32.2363 41.3438 33.75 39.8301 33.75 37.9688C33.75 36.1074 32.2363 34.5938 30.375 34.5938H27C26.0693 34.5938 25.3125 33.8369 25.3125 32.9062H37.6026C37.8413 33.7399 37.9688 34.5887 37.9688 35.4375C37.9688 40.5548 33.8048 44.7188 28.6875 44.7188C23.5702 44.7188 19.4062 40.5548 19.4062 35.4375ZM39.6562 35.4375C39.6562 34.5887 39.5474 33.7416 39.3457 32.9062H41.3438V37.9688H43.0312V32.9062H44.7188V37.9688H46.4062V32.9062H47.25C47.547 32.9062 47.8288 32.8455 48.0938 32.751V42.2947C46.91 42.6009 45.9751 43.535 45.6697 44.7196H34.506C37.5941 42.7764 39.6562 39.3474 39.6562 35.4375ZM51.4688 47.25C51.4688 47.7149 51.0908 48.0938 50.625 48.0938H6.75C6.28425 48.0938 5.90625 47.7149 5.90625 47.25V32.9062H7.59375V43.875H8.4375C9.36816 43.875 10.125 44.6318 10.125 45.5625V46.4062H47.25V45.5625C47.25 44.6318 48.0068 43.875 48.9375 43.875H49.7812V30.375V29.5312V22.7812H50.625C51.0908 22.7812 51.4688 23.1601 51.4688 23.625V47.25Z" fill="white"/>
</svg>
