<svg width="70" height="70" viewBox="0 0 70 70" fill="none" xmlns="http://www.w3.org/2000/svg">
<path d="M32.7821 24.4918C32.7098 25.578 32.6666 26.7388 32.6666 28C32.6666 33.8438 34.4107 37.3334 37.3332 37.3334C41.0175 37.3334 41.9999 32.9339 41.9999 30.3334C41.9999 29.6894 41.4772 29.1668 40.8332 29.1668C40.1893 29.1668 39.6666 29.6894 39.6666 30.3334C39.6666 30.38 39.5663 35 37.3332 35C35.9811 35 34.9999 32.0564 34.9999 28C34.9999 14.3979 39.7738 12.8486 39.9243 12.8054C40.5392 12.6654 40.9347 12.0598 40.8099 11.438C40.685 10.8068 40.0736 10.3962 39.4379 10.5234C39.2045 10.57 38.3588 10.7918 37.3414 11.6632C37.3427 11.4625 37.3589 11.2619 37.4127 11.0623C37.5737 10.4604 37.9598 9.9575 38.5 9.64606C39.0389 9.33461 39.6689 9.25176 40.2698 9.41268C40.8718 9.57482 41.3759 9.96105 41.6861 10.5C42.33 11.6141 41.9474 13.0445 40.8332 13.6873C40.2745 14.0105 40.0843 14.7245 40.4063 15.2821C40.6221 15.6555 41.0141 15.8643 41.4177 15.8643C41.6161 15.8643 41.8167 15.8141 41.9999 15.708C44.2282 14.42 44.9936 11.5605 43.7079 9.33338C43.0849 8.25426 42.0781 7.48193 40.8741 7.15873C39.6678 6.83553 38.4113 7.00246 37.3332 7.62535C36.2541 8.24838 35.4818 9.25518 35.1586 10.4591C34.8564 11.5861 34.9999 12.7563 35.5482 13.8214C34.5472 15.4502 33.6116 17.8756 33.0913 21.4829C31.3448 19.3911 30.3332 16.7264 30.3332 13.9999C30.3332 7.56684 35.567 2.33324 41.9999 2.33324C48.4327 2.33324 53.6665 7.56697 53.6665 13.9999C53.6665 20.4328 48.4327 25.6665 41.9999 25.6665C40.7329 25.6665 39.4868 25.4647 38.2981 25.0679C37.6879 24.8649 37.0252 25.194 36.8222 25.8042C36.6168 26.4154 36.947 27.0758 37.5584 27.28C38.9864 27.7572 40.4809 27.9999 41.9999 27.9999C49.7197 27.9999 55.9998 21.7197 55.9998 13.9999C56 6.28018 49.7198 0 42 0C34.2802 0 28 6.28018 28 14C28 17.9784 29.7862 21.8446 32.7821 24.4918Z" fill="black"/>
<path d="M69.6582 34.1752L57.5412 22.0582C57.0862 21.6032 56.3477 21.6032 55.8916 22.0582C55.4366 22.5144 55.4366 23.2528 55.8916 23.7078L67.6667 35.483V39.6668H63.483L63 39.1837V36.1668C63 35.5228 62.4773 35.0001 61.8334 35.0001H60.6667V33.8335C60.6667 33.1896 60.1441 32.6669 59.5001 32.6669H56.4842L56.0001 32.1828V29.1669C56.0001 28.5229 55.4774 28.0003 54.8335 28.0003H51.8164L51.7032 27.8871C51.2482 27.4321 50.5096 27.4321 50.0535 27.8871C49.5985 28.3433 49.5985 29.0817 50.0535 29.5367L50.5085 29.9917C50.7267 30.211 51.0242 30.3335 51.3334 30.3335H53.6667V32.6657C53.6667 32.9748 53.7892 33.2712 54.0074 33.4894L55.1741 34.6583C55.3934 34.8776 55.6898 35.0001 56.0001 35.0001H58.3335V36.1668C58.3335 36.8107 58.8562 37.3334 59.5001 37.3334H60.6667V39.6668C60.6667 39.9759 60.7892 40.2734 61.0085 40.4916L62.1752 41.6582C62.3934 41.8775 62.6909 42 63 42H68.8334C69.4773 42 70 41.4773 70 40.8334V35C70 34.6909 69.8775 34.3934 69.6582 34.1752Z" fill="black"/>
<path d="M7 19.8334C7 20.4773 7.52268 21 8.16662 21H9.33324V28H8.16662C7.52268 28 7 28.5227 7 29.1666C7 29.8106 7.52268 30.3333 8.16662 30.3333H9.33324V37.3333H8.16662C7.52268 37.3333 7 37.8559 7 38.4999C7 39.1438 7.52268 39.6665 8.16662 39.6665H9.33324V46.6665H8.16662C7.52268 46.6665 7 47.1892 7 47.8331C7 48.4771 7.52268 48.9997 8.16662 48.9997H9.33324V55.9997H8.16662C7.52268 55.9997 7 56.5224 7 57.1664C7 57.8103 7.52268 58.333 8.16662 58.333H9.33324V64.1664C9.33324 64.8103 9.85592 65.333 10.4999 65.333C11.1438 65.333 11.6665 64.8103 11.6665 64.1664V58.333H16.3331V64.1664C16.3331 64.8103 16.8558 65.333 17.4997 65.333C18.1437 65.333 18.6663 64.8103 18.6663 64.1664V58.333H23.333V64.1664C23.333 64.8103 23.8556 65.333 24.4996 65.333C25.1435 65.333 25.6662 64.8103 25.6662 64.1664V58.333H30.3328V64.1664C30.3328 64.8103 30.8555 65.333 31.4995 65.333C32.1434 65.333 32.6661 64.8103 32.6661 64.1664V58.333H33.8327C34.4766 58.333 34.9993 57.8103 34.9993 57.1664C34.9993 56.5224 34.4766 55.9997 33.8327 55.9997H32.6661V48.9997H33.8327C34.4766 48.9997 34.9993 48.4771 34.9993 47.8331C34.9993 47.1892 34.4766 46.6665 33.8327 46.6665H32.6661V39.6665C33.31 39.6665 33.8327 39.1438 33.8327 38.4999C33.8327 37.8559 33.31 37.3333 32.6661 37.3333C32.6661 36.6893 32.1434 36.1666 31.4995 36.1666C30.8555 36.1666 30.3328 36.6893 30.3328 37.3333H25.6662V30.3333H29.1662C29.8102 30.3333 30.3328 29.8106 30.3328 29.1666C30.3328 28.5227 29.8102 28 29.1662 28H25.6662V21H26.25C26.8939 21 27.4166 20.4773 27.4166 19.8334C27.4166 19.1894 26.8939 18.6668 26.25 18.6668H8.16662C7.52268 18.6666 7 19.1893 7 19.8334ZM25.6666 39.6666H30.3332V46.6666H25.6666V39.6666ZM25.6666 49H30.3332V56H25.6666V49ZM18.6666 21H23.3332V28H18.6666V21ZM18.6666 30.3334H23.3332V37.3334H18.6666V30.3334ZM18.6666 39.6666H23.3332V46.6666H18.6666V39.6666ZM18.6666 49H23.3332V56H18.6666V49ZM11.6666 21H16.3332V28H11.6666V21ZM11.6666 30.3334H16.3332V37.3334H11.6666V30.3334ZM11.6666 39.6666H16.3332V46.6666H11.6666V39.6666ZM11.6666 49H16.3332V56H11.6666V49Z" fill="black"/>
<path d="M24.5 16.3334C25.1439 16.3334 25.6666 15.8107 25.6666 15.1668C25.6666 14.5228 25.1439 14.0001 24.5 14.0001H17.5C16.856 14.0001 16.3334 14.5228 16.3334 15.1668C16.3334 15.8107 16.856 16.3334 17.5 16.3334H24.5Z" fill="black"/>
<path d="M68.8334 67.6666H51.3334V62.8821C53.9921 62.3396 56 59.9841 56 57.1666C56 57.015 55.9336 42 50.1666 42C44.3997 42 44.3332 57.015 44.3332 57.1666C44.3332 59.9841 46.3411 62.3396 48.9999 62.8821V67.6666H39.6665V40.8334C39.6665 40.1894 39.1438 39.6668 38.4999 39.6668C37.8559 39.6668 37.3332 40.1894 37.3332 40.8334V67.6668H4.66662V16.3334H12.8332C13.4772 16.3334 13.9999 15.8107 13.9999 15.1668V11.6668H24.4999C25.1438 11.6668 25.6665 11.1441 25.6665 10.5001C25.6665 9.85619 25.1438 9.33351 24.4999 9.33351H12.8334C12.1894 9.33351 11.6668 9.85619 11.6668 10.5001V14.0001H3.5C2.85605 14.0001 2.33338 14.5228 2.33338 15.1668V67.6668H1.16662C0.522676 67.6668 0 68.1894 0 68.8334C0 69.4773 0.522676 70 1.16662 70H68.8332C69.4772 70 69.9999 69.4773 69.9999 68.8334C69.9999 68.1894 69.4773 67.6666 68.8334 67.6666ZM46.6666 57.1666C46.6666 51.3543 48.2277 44.3332 50.1666 44.3332C52.1056 44.3332 53.6666 51.3543 53.6666 57.1666C53.6666 59.0963 52.0963 60.6666 50.1666 60.6666C48.237 60.6666 46.6666 59.0963 46.6666 57.1666Z" fill="black"/>
</svg>
