<svg width="70" height="70" viewBox="0 0 70 70" fill="none" xmlns="http://www.w3.org/2000/svg">
<path d="M18.5814 63.1703C18.1077 60.4275 15.7102 58.3334 12.8332 58.3334C10.5361 58.3334 8.54574 59.668 7.59486 61.6023C7.40701 61.4682 7.20631 61.3491 6.99986 61.2418V42C6.99986 41.3561 6.47719 40.8334 5.83324 40.8334C5.1893 40.8334 4.66662 41.3561 4.66662 42V60.6666C2.09303 60.6666 0 62.7596 0 65.3334C0 67.9071 2.09303 70 4.66662 70H17.5C19.4296 70 21 68.4296 21 66.5C21 64.9471 19.9838 63.6277 18.5814 63.1703ZM17.5 67.6666H4.66662C3.37982 67.6666 2.33324 66.6202 2.33324 65.3332C2.33324 64.0463 3.37982 63 4.66662 63C5.75518 63 6.72232 63.6323 7.07342 64.575C7.27057 65.1036 7.81662 65.415 8.3743 65.3146C8.92965 65.2143 9.33324 64.7313 9.33324 64.1666C9.33324 62.237 10.9036 60.6666 12.8332 60.6666C14.7629 60.6666 16.3332 62.237 16.3332 64.1666C16.3332 64.8106 16.8559 65.3332 17.4999 65.3332C18.1427 65.3332 18.6665 65.857 18.6665 66.4999C18.6665 67.1427 18.1429 67.6666 17.5 67.6666Z" fill="white"/>
<path d="M68.8334 9.33338H46.6666C46.0227 9.33338 45.5 9.85606 45.5 10.5C45.5 11.1439 46.0227 11.6666 46.6666 11.6666H67.6666V36.8503L35.8248 5.00855C35.5961 4.77982 35.2963 4.66676 34.9964 4.66676C34.6966 4.66676 34.3968 4.77996 34.1681 5.00855L2.33338 36.8491V11.6666H15.1668C15.8107 11.6666 16.3334 11.1439 16.3334 10.5V5.83338C16.3334 5.18943 15.8107 4.66676 15.1668 4.66676H14V2.33338H21V4.66676H19.8334C19.1894 4.66676 18.6668 5.18943 18.6668 5.83338V10.5C18.6668 11.1439 19.1894 11.6666 19.8334 11.6666H23.3334C23.9773 11.6666 24.5 11.1439 24.5 10.5C24.5 9.85606 23.9773 9.33338 23.3334 9.33338H21V7H22.1666C22.8106 7 23.3332 6.47732 23.3332 5.83338V1.16662C23.3332 0.522676 22.8106 0 22.1666 0H12.8334C12.1894 0 11.6668 0.522676 11.6668 1.16662V5.83324C11.6668 6.47719 12.1894 6.99986 12.8334 6.99986H14V9.33324H1.16662C0.8575 9.33324 0.56 9.45574 0.341797 9.67504C0.1225 9.89338 0 10.1909 0 10.5L0.00464844 39.6666C0.00464844 40.1391 0.289297 40.5638 0.725703 40.7446C0.870352 40.8041 1.02088 40.8334 1.17141 40.8334C1.47588 40.8334 1.77461 40.7144 1.99623 40.4916L34.9964 7.47947L68.0084 40.4914C68.2313 40.7143 68.5299 40.8332 68.8332 40.8332C68.9838 40.8332 69.1354 40.8041 69.28 40.7445C69.7152 40.5636 69.9999 40.1379 69.9999 39.6665V10.5C70 9.85606 69.4773 9.33338 68.8334 9.33338Z" fill="white"/>
<path d="M65.3334 60.6666V42C65.3334 41.3561 64.8107 40.8334 64.1668 40.8334C63.5228 40.8334 63.0001 41.3561 63.0001 42V61.2418C62.7937 61.3491 62.593 61.4681 62.4051 61.6023C61.4543 59.668 59.4639 58.3334 57.1668 58.3334C54.2898 58.3334 51.8923 60.4275 51.4186 63.1703C50.0162 63.6277 49 64.9471 49 66.5C49 66.9118 49.0839 67.3004 49.2159 67.6666H29.1666C28.5227 67.6666 28 68.1893 28 68.8332C28 69.4772 28.5227 69.9999 29.1666 69.9999H52.5H57.1666H65.3332C67.907 70 70 67.907 70 65.3334C70 62.7598 67.907 60.6666 65.3334 60.6666ZM65.3334 67.6666H57.1668H52.5C51.8571 67.6666 51.3334 67.1428 51.3334 66.5C51.3334 65.8571 51.8571 65.3334 52.5 65.3334C53.1439 65.3334 53.6666 64.8107 53.6666 64.1668C53.6666 62.2371 55.237 60.6668 57.1666 60.6668C59.0963 60.6668 60.6666 62.2371 60.6666 64.1668C60.6666 64.7314 61.0704 65.2144 61.6256 65.3148C62.1797 65.4162 62.7293 65.1036 62.9264 64.5751C63.2775 63.6325 64.2448 63.0001 65.3332 63.0001C66.62 63.0001 67.6666 64.0466 67.6666 65.3335C67.6666 66.6204 66.6202 67.6666 65.3334 67.6666Z" fill="white"/>
<path d="M39.6667 23.3334C39.6667 20.7597 37.5737 18.6668 35.0001 18.6668C32.4264 18.6668 30.3335 20.7598 30.3335 23.3334C30.3335 25.907 32.4264 28 35.0001 28C37.5738 28 39.6667 25.907 39.6667 23.3334ZM32.6667 23.3334C32.6667 22.0466 33.7132 21 35.0001 21C36.2869 21 37.3335 22.0465 37.3335 23.3334C37.3335 24.6202 36.2871 25.6668 35.0001 25.6668C33.7133 25.6666 32.6667 24.6202 32.6667 23.3334Z" fill="white"/>
<path d="M57.1667 39.6666H47.8334C47.1894 39.6666 46.6667 40.1893 46.6667 40.8332V53.6666H45.5001C44.8562 53.6666 44.3335 54.1893 44.3335 54.8332C44.3335 55.4772 44.8562 55.9999 45.5001 55.9999H59.5001C60.1441 55.9999 60.6667 55.4772 60.6667 54.8332C60.6667 54.1893 60.1441 53.6666 59.5001 53.6666H58.3335V40.8332C58.3335 40.1893 57.8108 39.6666 57.1667 39.6666ZM56.0001 53.6666H49.0001V49H56.0001V53.6666ZM56.0001 46.6666H49.0001V42H56.0001V46.6666Z" fill="white"/>
<path d="M46.6666 64.1666C46.6666 63.5227 46.1439 63 45.5 63H42V40.8334C42 40.1894 41.4773 39.6668 40.8334 39.6668H29.1667C28.5228 39.6668 28.0001 40.1894 28.0001 40.8334V63H24.5001C23.8562 63 23.3335 63.5227 23.3335 64.1666V68.8332C23.3335 69.4772 23.8562 69.9999 24.5001 69.9999C25.1441 69.9999 25.6667 69.4772 25.6667 68.8332V65.3332H45.5C46.1439 65.3334 46.6666 64.8107 46.6666 64.1666ZM39.6666 51.3334H38.5C37.856 51.3334 37.3334 51.8561 37.3334 52.5C37.3334 53.144 37.856 53.6666 38.5 53.6666H39.6666V63H30.3332V42H39.6666V51.3334Z" fill="white"/>
<path d="M22.1667 39.6666H12.8335C12.1896 39.6666 11.6669 40.1893 11.6669 40.8332V53.6666H10.5001C9.85617 53.6666 9.3335 54.1893 9.3335 54.8332C9.3335 55.4772 9.85617 56 10.5001 56H24.5001C25.1441 56 25.6667 55.4773 25.6667 54.8334C25.6667 54.1894 25.1441 53.6668 24.5001 53.6668H23.3335V40.8334C23.3335 40.1893 22.8108 39.6666 22.1667 39.6666ZM21.0001 53.6666H14.0001V49H21.0001V53.6666ZM21.0001 46.6666H14.0001V42H21.0001V46.6666Z" fill="white"/>
</svg>
